<?xml version="1.0" encoding="UTF-8"?>
<svg version="1.1" xmlns="http://www.w3.org/2000/svg" width="512" height="512">
<path d="M0 0 C168.96 0 337.92 0 512 0 C512 168.96 512 337.92 512 512 C343.04 512 174.08 512 0 512 C0 343.04 0 174.08 0 0 Z " fill="#FDFDFD" transform="translate(0,0)"/>
<path d="M0 0 C1.98 0.33 3.96 0.66 6 1 C6 1.66 6 2.32 6 3 C6.66 3 7.32 3 8 3 C8 3.66 8 4.32 8 5 C8.66 5 9.32 5 10 5 C10 5.66 10 6.32 10 7 C10.66 7 11.32 7 12 7 C22 18.06024096 22 18.06024096 22 23 C22.66 23 23.32 23 24 23 C33.10305344 46.07251908 33.10305344 46.07251908 32 56 C31.08618494 58.0757247 30.04094142 60.03961295 28.95703125 62.03125 C24.58495958 71.02522601 27.21048847 81.96660773 30 91 C30.33 91.33 30.66 91.66 31 92 C31.82583256 102.12660259 30.60890471 110.44606924 27 120 C26.34 120 25.68 120 25 120 C24.67 122.31 24.34 124.62 24 127 C23.01 127 22.02 127 21 127 C20.62875 128.3303125 20.62875 128.3303125 20.25 129.6875 C18.95387936 133.12221969 17.33792687 135.20957115 15 138 C14.67 138.99 14.34 139.98 14 141 C8.65116279 146 8.65116279 146 5 146 C4.67 146.99 4.34 147.98 4 149 C-2.28114302 155.28114302 -10.28007061 156.37696878 -18.8203125 156.41015625 C-19.82835937 156.39855469 -20.83640625 156.38695312 -21.875 156.375 C-22.90625 156.38660156 -23.9375 156.39820313 -25 156.41015625 C-26.48113281 156.40435547 -26.48113281 156.40435547 -27.9921875 156.3984375 C-28.88276855 156.39505371 -29.77334961 156.39166992 -30.69091797 156.38818359 C-33.47867161 155.91952972 -34.15209425 155.06169187 -36 153 C-38.32481174 151.98034573 -40.65794699 150.97940398 -43 150 C-43.66 149.34 -44.32 148.68 -45 148 C-45.639375 147.896875 -46.27875 147.79375 -46.9375 147.6875 C-49.95593737 146.68135421 -50.48066981 144.72213325 -52 142 C-53.31328657 140.64691687 -54.64499081 139.31129922 -56 138 C-58.37423031 134.43865453 -58.44125184 133.20192096 -58 129 C-56.91710949 126.41984762 -55.82188925 124.06972953 -54.5 121.625 C-54.16613281 120.98433594 -53.83226562 120.34367187 -53.48828125 119.68359375 C-52.66973549 118.11666329 -51.83635487 116.55749759 -51 115 C-48.625 114.875 -48.625 114.875 -46 115 C-44 117 -44 117 -43.1875 119.375 C-41.72915907 122.598701 -39.77619164 123.88132743 -37 126 C-37 126.66 -37 127.32 -37 128 C-32.47618873 130.04301154 -27.83628305 131.00956295 -23 132 C-23 132.66 -23 133.32 -23 134 C-18.65815798 133.81535634 -18.65815798 133.81535634 -15 132 C-13.33382885 131.95936168 -11.66611905 131.957279 -10 132 C-10 131.34 -10 130.68 -10 130 C-9.236875 129.731875 -8.47375 129.46375 -7.6875 129.1875 C-5.09503074 128.04199033 -3.91184456 127.00288478 -2 125 C-1.34 125 -0.68 125 0 125 C0 124.34 0 123.68 0 123 C1.18426588 121.84957029 2.3693073 120.69992631 3.55859375 119.5546875 C7.35065106 115.46460943 10.47152296 110.63708847 11 105 C11.66 105 12.32 105 13 105 C13.185625 103.9171875 13.185625 103.9171875 13.375 102.8125 C14 100 14 100 15 97.75 C16.19881813 94.45325015 16.47149718 91.37174908 16.75390625 87.890625 C17 86 17 86 18 85 C19.91748068 65.63741234 15.8918452 48.63628511 6 32 C5.34 31.67 4.68 31.34 4 31 C4 30.01 4 29.02 4 28 C2.68 27.34 1.36 26.68 0 26 C0 17.42 0 8.84 0 0 Z " fill="#308795" transform="translate(319,123)"/>
<path d="M0 0 C16.70842825 -0.55353075 16.70842825 -0.55353075 25 3 C25 3.66 25 4.32 25 5 C27.31 5.66 29.62 6.32 32 7 C32 7.66 32 8.32 32 9 C32.70125 9.185625 33.4025 9.37125 34.125 9.5625 C38.04135028 11.52067514 40.5338864 14.40676231 43 18 C43 18.66 43 19.32 43 20 C44.485 20.495 44.485 20.495 46 21 C46 23.64 46 26.28 46 29 C45.34 29 44.68 29 44 29 C43.731875 29.70125 43.46375 30.4025 43.1875 31.125 C41.9318551 34.1649824 40.49764877 37.0727774 39 40 C36.8125 40.4375 36.8125 40.4375 34 40 C31.55567293 37.48300375 29 34.60995554 29 31 C28.030625 30.71125 27.06125 30.4225 26.0625 30.125 C23 29 23 29 22 27 C20.02111039 26.27306096 18.02045442 25.60183749 16 25 C16 24.34 16 23.68 16 23 C10.72 23 5.44 23 0 23 C0 23.66 0 24.32 0 25 C-0.7425 25.28875 -1.485 25.5775 -2.25 25.875 C-3.1575 26.24625 -4.065 26.6175 -5 27 C-5.66 27.268125 -6.32 27.53625 -7 27.8125 C-10.85756193 30.1029274 -13.53576627 33.30364941 -16 37 C-16.66 37 -17.32 37 -18 37 C-18.38865234 37.77923828 -18.38865234 37.77923828 -18.78515625 38.57421875 C-19.71815148 40.43720923 -20.66636378 42.29258516 -21.62109375 44.14453125 C-29.46098926 59.74495807 -31.47699081 75.62969293 -30 93 C-29.67 93.33 -29.34 93.66 -29 94 C-28.85884839 96.67058851 -28.95752893 99.32432238 -29 102 C-28.34 102 -27.68 102 -27 102 C-27 103.98 -27 105.96 -27 108 C-26.34 108 -25.68 108 -25 108 C-24.79375 109.134375 -24.5875 110.26875 -24.375 111.4375 C-22.79409547 117.77233023 -19.087532 123.07679268 -14.3203125 127.46875 C-10.42662666 132.09602883 -11.478391 138.17436685 -11.6875 143.875 C-11.71005859 145.0403125 -11.73261719 146.205625 -11.75585938 147.40625 C-11.81458703 150.27215945 -11.89667125 153.13540922 -12 156 C-13.65 155.67 -15.3 155.34 -17 155 C-17 154.34 -17 153.68 -17 153 C-17.99 153 -18.98 153 -20 153 C-20 152.34 -20 151.68 -20 151 C-20.99 150.67 -21.98 150.34 -23 150 C-30.51941254 141.79835279 -35.48666529 132.07470969 -40 122 C-40.38414062 121.154375 -40.76828125 120.30875 -41.1640625 119.4375 C-45.19623852 109.18748245 -43.27706228 99.81396538 -39.125 90 C-36.33379563 82.55678836 -38.08306799 76.13465803 -41 69 C-41.556875 67.824375 -42.11375 66.64875 -42.6875 65.4375 C-46.9204127 54.35130008 -40.82918775 42.11740587 -36.4140625 31.8515625 C-32.04728206 23.04562404 -25.33210287 14.57360947 -18 8 C-17.01 7.67 -16.02 7.34 -15 7 C-14.67 6.34 -14.34 5.68 -14 5 C-12.02 5 -10.04 5 -8 5 C-8 4.34 -8 3.68 -8 3 C-3.25 1.875 -3.25 1.875 -1 3 C-0.67 2.01 -0.34 1.02 0 0 Z " fill="#328896" transform="translate(215,116)"/>
<path d="M0 0 C3.04575642 2.56120426 4.73506553 4.20519658 6 8 C12.95913448 8.50408218 17.30518028 8.18394918 23 4 C24.90332221 1.91444964 24.90332221 1.91444964 26 0 C29.55780196 0.60990891 32.6828589 1.5783681 36 3 C36 3.66 36 4.32 36 5 C36.99 5 37.98 5 39 5 C40.61328125 6.50390625 40.61328125 6.50390625 42.3125 8.5625 C42.92609375 9.29984375 43.5396875 10.0371875 44.171875 10.796875 C44.77515625 11.52390625 45.3784375 12.2509375 46 13 C46.78117187 13.84304687 46.78117187 13.84304687 47.578125 14.703125 C57.70313074 25.6807628 64.31283656 42.27566448 66 57 C66.10957031 57.825 66.21914063 58.65 66.33203125 59.5 C68.40468471 78.51314106 68.68649544 99.16733058 61 117 C60.55333984 118.19496094 60.55333984 118.19496094 60.09765625 119.4140625 C57.9746474 125.05836716 55.39566436 130.01783672 52 135 C51.01 134.67 50.02 134.34 49 134 C47.8125 131.4375 47.8125 131.4375 47 129 C46.34 129 45.68 129 45 129 C45 128.34 45 127.68 45 127 C44.34 127 43.68 127 43 127 C40.59100141 125.33223175 40.05496978 124.25652565 39.4375 121.375 C40.0216795 117.86992299 40.61637976 116.97234876 42.6875 114.25 C53.00264451 99.45107534 52.83899674 78.87943591 50.48828125 61.6796875 C47.53377839 46.13866091 39.79735174 32.46074848 27 23 C24.82334377 22.2205487 24.82334377 22.2205487 23 22 C23 21.34 23 20.68 23 20 C12.74116704 19.46444608 4.89934341 19.20752796 -4 25 C-4.70511719 25.30164063 -5.41023438 25.60328125 -6.13671875 25.9140625 C-8.4907423 27.28600914 -8.91468946 28.5375307 -10 31 C-10.9330672 32.26897139 -11.892913 33.51857485 -12.875 34.75 C-15.85180459 38.63151971 -17.94259988 42.56867667 -20 47 C-22.47923801 47.02685095 -24.9581884 47.04676547 -27.4375 47.0625 C-28.14455078 47.07087891 -28.85160156 47.07925781 -29.58007812 47.08789062 C-31.38693559 47.09653588 -33.19387603 47.05220011 -35 47 C-35.33 46.67 -35.66 46.34 -36 46 C-36 31.81091286 -25.9045008 18.06384743 -16.5 8.125 C-6.16588548 -1.66645554 -6.16588548 -1.66645554 0 0 Z " fill="#78C3CE" transform="translate(248,63)"/>
<path d="M0 0 C3.96 0 7.92 0 12 0 C17.0217657 10.65657812 22.02584549 21.32111203 27 32 C28.98818748 29.01771878 30.46451809 26.07074401 32.00390625 22.8359375 C32.28725327 22.2432608 32.57060028 21.65058411 32.86253357 21.03994751 C33.7647003 19.15266192 34.66392702 17.26399902 35.5625 15.375 C36.74889124 12.88165315 37.93807573 10.38966658 39.12890625 7.8984375 C39.65556885 6.79161621 40.18223145 5.68479492 40.72485352 4.54443359 C42 2 42 2 43 1 C46.63 1 50.26 1 54 1 C54 26.08 54 51.16 54 77 C51.03 77 48.06 77 45 77 C44.67 59.51 44.34 42.02 44 24 C41.69 28.62 39.38 33.24 37 38 C33.125 45.6875 33.125 45.6875 31.3828125 49.13671875 C29.93838008 51.97184126 29.93838008 51.97184126 29 55 C28.01 55 27.02 55 26 55 C20.80242226 44.75102638 15.89586109 34.40370482 11 24 C10.67 41.82 10.34 59.64 10 78 C6.7 78 3.4 78 0 78 C0 52.26 0 26.52 0 0 Z " fill="#0E5869" transform="translate(97,308)"/>
<path d="M0 0 C2.64 0 5.28 0 8 0 C20.17724908 22.06058752 20.17724908 22.06058752 25.41210938 32.81054688 C27.45801091 36.9988981 29.67393752 40.92939065 32 45 C32.33 30.15 32.66 15.3 33 0 C36.3 0 39.6 0 43 0 C43 25.41 43 50.82 43 77 C40.69 77 38.38 77 36 77 C32.76081952 70.66467765 29.52191528 64.32921412 26.28320312 57.99365234 C25.18137878 55.83834635 24.07949118 53.6830727 22.97753906 51.52783203 C21.39371378 48.43009807 19.81011593 45.33224794 18.2265625 42.234375 C17.73378815 41.27070007 17.24101379 40.30702515 16.73330688 39.31414795 C16.27298065 38.41351624 15.81265442 37.51288452 15.33837891 36.58496094 C14.9342276 35.79442322 14.53007629 35.0038855 14.11367798 34.18939209 C13.0665912 32.13091238 12.03283391 30.06566782 11 28 C10.67 44.17 10.34 60.34 10 77 C6.7 77 3.4 77 0 77 C0 51.59 0 26.18 0 0 Z " fill="#105A6B" transform="translate(320,308)"/>
<path d="M0 0 C1.60279192 0.00015914 3.20558896 0.00585476 4.80834961 0.01586914 C5.65038437 0.01728409 6.49241913 0.01869904 7.35997009 0.02015686 C10.06024671 0.02577276 12.76044163 0.03832791 15.46069336 0.05102539 C17.28686404 0.05603834 19.11303602 0.06060161 20.93920898 0.06469727 C25.42556878 0.07574735 29.9118672 0.0930226 34.39819336 0.11352539 C34.39819336 4.73352539 34.39819336 9.35352539 34.39819336 14.11352539 C24.82819336 14.11352539 15.25819336 14.11352539 5.39819336 14.11352539 C5.39819336 20.05352539 5.39819336 25.99352539 5.39819336 32.11352539 C14.63819336 32.11352539 23.87819336 32.11352539 33.39819336 32.11352539 C33.39819336 36.40352539 33.39819336 40.69352539 33.39819336 45.11352539 C24.15819336 45.11352539 14.91819336 45.11352539 5.39819336 45.11352539 C5.39819336 51.05352539 5.39819336 56.99352539 5.39819336 63.11352539 C14.96819336 63.11352539 24.53819336 63.11352539 34.39819336 63.11352539 C34.39819336 68.06352539 34.39819336 73.01352539 34.39819336 78.11352539 C21.52819336 78.11352539 8.65819336 78.11352539 -4.60180664 78.11352539 C-4.64191545 58.93705799 -4.64191545 58.93705799 -4.65063477 50.79125977 C-4.65662306 45.22313489 -4.66372298 39.6550264 -4.67724609 34.08691406 C-4.6880755 29.60007993 -4.69408359 25.11326335 -4.69668388 20.62641716 C-4.69853804 18.91072246 -4.70215846 17.19502878 -4.7075367 15.47934151 C-4.71474785 13.08467626 -4.71579755 10.69008443 -4.71533203 8.29541016 C-4.71892731 7.57899857 -4.72252258 6.86258698 -4.72622681 6.12446594 C-4.71357425 0.14856721 -4.71357425 0.14856721 0 0 Z " fill="#125C6D" transform="translate(210.601806640625,307.886474609375)"/>
<path d="M0 0 C12.54 0 25.08 0 38 0 C38 4.62 38 9.24 38 14 C28.43 14 18.86 14 9 14 C9 19.94 9 25.88 9 32 C18.24 32 27.48 32 37 32 C37 36.62 37 41.24 37 46 C27.76 46 18.52 46 9 46 C9 51.61 9 57.22 9 63 C18.57 63 28.14 63 38 63 C38 67.62 38 72.24 38 77 C25.46 77 12.92 77 0 77 C0 51.59 0 26.18 0 0 Z " fill="#0B5767" transform="translate(161,308)"/>
<path d="M0 0 C1.05445313 -0.00257813 2.10890625 -0.00515625 3.1953125 -0.0078125 C5.875 0.125 5.875 0.125 7.875 1.125 C7.875 1.785 7.875 2.445 7.875 3.125 C8.431875 3.2075 8.98875 3.29 9.5625 3.375 C12.7201999 4.39911889 14.52868035 5.77868035 16.875 8.125 C18 11 18 11 17.875 14.125 C16.42496548 16.46205198 14.81757357 18.13504659 12.875 20.125 C10.565 18.805 8.255 17.485 5.875 16.125 C5.875 15.465 5.875 14.805 5.875 14.125 C-1.41983249 13.6955595 -1.41983249 13.6955595 -8.125 16.125 C-16.32315567 24.51834985 -17.50215979 34.16647956 -17.40625 45.5078125 C-16.87681423 52.31694475 -14.94711409 57.89291025 -10.625 63.1875 C-6.60250992 66.30492981 -4.00045442 67.38488038 1.125 67.25 C2.01703125 67.23195313 2.9090625 67.21390625 3.828125 67.1953125 C4.50359375 67.17210937 5.1790625 67.14890625 5.875 67.125 C5.875 66.465 5.875 65.805 5.875 65.125 C6.51953125 64.73699219 7.1640625 64.34898437 7.828125 63.94921875 C10.21767722 62.19644083 10.21767722 62.19644083 10.484375 58.76953125 C10.53078125 57.50496094 10.5771875 56.24039063 10.625 54.9375 C10.68171875 53.66519531 10.7384375 52.39289063 10.796875 51.08203125 C10.83554687 49.61830078 10.83554687 49.61830078 10.875 48.125 C6.585 48.125 2.295 48.125 -2.125 48.125 C-2.125 43.835 -2.125 39.545 -2.125 35.125 C5.135 35.125 12.395 35.125 19.875 35.125 C20.01351338 39.68055131 20.13266834 44.22868037 20.20458984 48.78466797 C20.23459028 50.3308194 20.27540631 51.87680311 20.32763672 53.42236328 C20.80462944 67.90984818 20.80462944 67.90984818 17.109375 73 C15.45263672 74.75 15.45263672 74.75 13.875 76.125 C13.17117188 76.74375 12.46734375 77.3625 11.7421875 78 C5.56446981 81.48859352 -0.11436678 82.37885999 -7.125 81.125 C-15.25698048 78.14790743 -19.96982799 72.52412208 -24.125 65.125 C-30.48079332 50.96891487 -28.35721149 30.3462725 -23.125 16.125 C-20.4874968 10.95189713 -18.00786188 6.38024125 -13.125 3.125 C-12.135 3.125 -11.145 3.125 -10.125 3.125 C-10.125 2.465 -10.125 1.805 -10.125 1.125 C-6.7086981 0.08525594 -3.56073988 -0.00874875 0 0 Z " fill="#0C5868" transform="translate(397.125,305.875)"/>
<path d="M0 0 C5.70136835 2.86112624 8.89841185 8.13589113 11 14 C13.38631349 23.8175179 12.41181645 32.93626824 8 42 C5.875 45.1875 5.875 45.1875 4 47 C3.34 47 2.68 47 2 47 C2 47.66 2 48.32 2 49 C-1.73329967 50.86664983 -5.93468072 50.55038169 -10 50 C-15.7433572 46.38381213 -19.05171715 41.75002026 -21.25 35.375 C-23.42729583 25.11620974 -22.34340625 15.71614617 -17.0625 6.6875 C-16.381875 5.800625 -15.70125 4.91375 -15 4 C-14.484375 3.21625 -13.96875 2.4325 -13.4375 1.625 C-9.2544901 -1.16367326 -4.83824378 -0.89089475 0 0 Z " fill="#404142" transform="translate(266,18)"/>
<path d="M0 0 C5.98621236 3.32567353 8.54355442 8.73655309 11 15 C13.06317251 23.48625674 12.40762009 31.93056632 9 40 C6.9598401 42.99412355 4.77831738 45.66353551 2 48 C1.34 48 0.68 48 0 48 C0 48.66 0 49.32 0 50 C-5.06624527 50.45055541 -8.80134574 50.67848354 -13.3125 48.125 C-20.40037244 41.09753556 -22.35322571 31.56894231 -22.4597168 22.00463867 C-22.28212548 14.1307905 -19.31334843 7.21493214 -13.6328125 1.703125 C-9.23950743 -1.13883495 -5.0477937 -0.82519161 0 0 Z " fill="#3F4142" transform="translate(163,173)"/>
<path d="M0 0 C6.38563509 2.65064098 8.45838391 7.93454964 11 14 C13.77342499 22.32027498 12.5177454 31.67915878 9.21484375 39.6484375 C7.22513919 43.49989134 4.98054726 47.00972637 1 49 C-4.24799658 49.47286232 -9.22059787 49.88970106 -14 47.5 C-20.11396968 39.8575379 -22.93510026 30.74314138 -22 21 C-20.77980226 12.59172831 -18.46130222 6.68283207 -12 1 C-8.27537235 -0.86231382 -4.06488852 -0.4196418 0 0 Z " fill="#3F4041" transform="translate(369,173)"/>
<path d="M0 0 C1.33278992 0.00303635 1.33278992 0.00303635 2.69250488 0.00613403 C3.5987561 0.00517731 4.50500732 0.00422058 5.4387207 0.00323486 C7.35876535 0.002553 9.27881229 0.00440771 11.19885254 0.00857544 C14.14861192 0.01392361 17.09821902 0.00863066 20.04797363 0.00222778 C21.90865105 0.00288856 23.76932838 0.00416972 25.63000488 0.00613403 C26.51853149 0.0041098 27.40705811 0.00208557 28.32250977 0 C34.546305 0.02399665 34.546305 0.02399665 35.66125488 1.13894653 C35.80480605 5.14115306 35.70341892 9.13336337 35.66125488 13.13894653 C30.05125488 13.13894653 24.44125488 13.13894653 18.66125488 13.13894653 C18.66125488 34.58894653 18.66125488 56.03894653 18.66125488 78.13894653 C15.36125488 78.13894653 12.06125488 78.13894653 8.66125488 78.13894653 C8.66125488 57.01894653 8.66125488 35.89894653 8.66125488 14.13894653 C3.71125488 14.13894653 -1.23874512 14.13894653 -6.33874512 14.13894653 C-7.33874512 13.13894653 -7.33874512 13.13894653 -7.47155762 10.45144653 C-7.46897949 9.35832153 -7.46640137 8.26519653 -7.46374512 7.13894653 C-7.46632324 6.04582153 -7.46890137 4.95269653 -7.47155762 3.82644653 C-7.22016346 -1.26058815 -4.43737101 0.01710886 0 0 Z " fill="#0A5768" transform="translate(259.3387451171875,307.8610534667969)"/>
<path d="M0 0 C2.97 0 5.94 0 9 0 C9 25.08 9 50.16 9 76 C6.03 76 3.06 76 0 76 C0 50.92 0 25.84 0 0 Z " fill="#075465" transform="translate(301,309)"/>
<path d="M0 0 C0.99 0 1.98 0 3 0 C3 12.54 3 25.08 3 38 C1.68 37.67 0.36 37.34 -1 37 C-1.66 37.66 -2.32 38.32 -3 39 C-5.375 39 -5.375 39 -8 38 C-11.77352104 33.46624579 -12.62975195 29.75233658 -12.5 24 C-12.51546875 23.31421875 -12.5309375 22.6284375 -12.546875 21.921875 C-12.50816422 16.85076288 -11.24807454 13.8548577 -8 10 C-5.375 9.5 -5.375 9.5 -3 10 C-2.34 10.66 -1.68 11.32 -1 12 C-0.67 8.04 -0.34 4.08 0 0 Z " fill="#131313" transform="translate(272,397)"/>
<path d="M0 0 C3.6875 0.4375 3.6875 0.4375 6.0625 2.875 C8.05850252 7.25085169 8.39746517 10.65192529 8.6875 15.4375 C4.0675 15.4375 -0.5525 15.4375 -5.3125 15.4375 C-4.3225 18.0775 -3.3325 20.7175 -2.3125 23.4375 C0.10369823 23.68780977 0.10369823 23.68780977 2.6875 23.4375 C3.3475 22.4475 4.0075 21.4575 4.6875 20.4375 C5.6775 20.4375 6.6675 20.4375 7.6875 20.4375 C7.3970662 23.70488025 7.20181765 25.8242751 5.0625 28.375 C1.57430246 29.93550943 -0.67682898 29.42904664 -4.3125 28.4375 C-8.33348405 24.41651595 -8.51424886 20.09843775 -8.625 14.625 C-8.59720243 7.89798712 -7.733648 1.02142521 0 0 Z " fill="#1C1C1C" transform="translate(319.3125,406.5625)"/>
<path d="M0 0 C4.13932182 1.42994754 5.41485468 2.30402099 7.4375 6.1875 C7.75265659 9.27190136 7.62352589 12.07156638 7.4375 15.1875 C3.1475 15.1875 -1.1425 15.1875 -5.5625 15.1875 C-4.7020861 19.51979715 -4.7020861 19.51979715 -2.5625 23.1875 C-0.10457971 23.52093551 -0.10457971 23.52093551 2.4375 23.1875 C3.0975 22.1975 3.7575 21.2075 4.4375 20.1875 C5.4275 20.1875 6.4175 20.1875 7.4375 20.1875 C7.09759204 23.24667167 6.58051602 24.99151508 4.75 27.5 C2.4375 29.1875 2.4375 29.1875 -0.5625 29.75 C-3.5625 29.1875 -3.5625 29.1875 -5.875 26.875 C-9.79732758 20.62833016 -9.22750203 13.30378604 -8.5625 6.1875 C-6.91898093 1.74336547 -4.83285327 0.2543607 0 0 Z " fill="#1C1C1C" transform="translate(247.5625,406.8125)"/>
<path d="M0 0 C1.33278992 0.00303635 1.33278992 0.00303635 2.69250488 0.00613403 C3.5987561 0.00517731 4.50500732 0.00422058 5.4387207 0.00323486 C7.35876535 0.002553 9.27881229 0.00440771 11.19885254 0.00857544 C14.14861192 0.01392361 17.09821902 0.00863066 20.04797363 0.00222778 C21.90865105 0.00288856 23.76932838 0.00416972 25.63000488 0.00613403 C26.51853149 0.0041098 27.40705811 0.00208557 28.32250977 0 C34.546305 0.02399665 34.546305 0.02399665 35.66125488 1.13894653 C35.80480605 5.14115306 35.70341892 9.13336337 35.66125488 13.13894653 C30.38125488 13.13894653 25.10125488 13.13894653 19.66125488 13.13894653 C19.66125488 12.80894653 19.66125488 12.47894653 19.66125488 12.13894653 C24.61125488 12.13894653 29.56125488 12.13894653 34.66125488 12.13894653 C34.66125488 9.16894653 34.66125488 6.19894653 34.66125488 3.13894653 C21.46125488 3.13894653 8.26125488 3.13894653 -5.33874512 3.13894653 C-5.33874512 6.10894653 -5.33874512 9.07894653 -5.33874512 12.13894653 C-4.33972168 12.12734497 -3.34069824 12.11574341 -2.31140137 12.10379028 C-1.0210498 12.09476685 0.26930176 12.08574341 1.59875488 12.07644653 C2.88652832 12.06484497 4.17430176 12.05324341 5.50109863 12.04129028 C8.66125488 12.13894653 8.66125488 12.13894653 9.66125488 13.13894653 C9.7553063 15.13326383 9.77868738 17.13094196 9.77478027 19.12747192 C9.77470474 20.40872452 9.77462921 21.68997711 9.77455139 23.01005554 C9.76944398 24.41890501 9.76422797 25.82775409 9.75891113 27.23660278 C9.7570469 28.67006888 9.75562302 30.10353561 9.75462341 31.53700256 C9.75079861 35.3165461 9.74096865 39.09605143 9.72991943 42.87557983 C9.71970451 46.72963952 9.71512562 50.58370535 9.71008301 54.43777466 C9.69934634 62.0048494 9.68227037 69.57189262 9.66125488 77.13894653 C12.63125488 77.13894653 15.60125488 77.13894653 18.66125488 77.13894653 C18.66125488 77.46894653 18.66125488 77.79894653 18.66125488 78.13894653 C15.36125488 78.13894653 12.06125488 78.13894653 8.66125488 78.13894653 C8.66125488 57.01894653 8.66125488 35.89894653 8.66125488 14.13894653 C3.71125488 14.13894653 -1.23874512 14.13894653 -6.33874512 14.13894653 C-7.33874512 13.13894653 -7.33874512 13.13894653 -7.47155762 10.45144653 C-7.46897949 9.35832153 -7.46640137 8.26519653 -7.46374512 7.13894653 C-7.46632324 6.04582153 -7.46890137 4.95269653 -7.47155762 3.82644653 C-7.22016346 -1.26058815 -4.43737101 0.01710886 0 0 Z " fill="#457D92" transform="translate(259.3387451171875,307.8610534667969)"/>
<path d="M0 0 C3.35784867 0.47969267 4.80170102 0.9158396 7.0625 3.4375 C7.3125 6.125 7.3125 6.125 7.0625 8.4375 C6.0725 8.4375 5.0825 8.4375 4.0625 8.4375 C3.7325 7.7775 3.4025 7.1175 3.0625 6.4375 C1.4125 6.4375 -0.2375 6.4375 -1.9375 6.4375 C-1.98039755 8.36859581 -1.98039755 8.36859581 -0.9375 10.4375 C1.38229381 11.46851947 3.71679915 12.46686517 6.0625 13.4375 C8.51495837 15.73173525 8.98650582 17.00053348 9.5625 20.3125 C8.87128467 24.63259581 7.26674044 26.51188916 4.0625 29.4375 C1 30.0625 1 30.0625 -1.9375 29.4375 C-4.3125 27.8125 -4.3125 27.8125 -5.9375 25.4375 C-6.1875 22.1875 -6.1875 22.1875 -5.9375 19.4375 C-4.9475 19.4375 -3.9575 19.4375 -2.9375 19.4375 C-2.2775 20.7575 -1.6175 22.0775 -0.9375 23.4375 C0.7125 23.4375 2.3625 23.4375 4.0625 23.4375 C4.3925 21.7875 4.7225 20.1375 5.0625 18.4375 C3.0825 18.1075 1.1025 17.7775 -0.9375 17.4375 C-0.9375 16.7775 -0.9375 16.1175 -0.9375 15.4375 C-1.576875 15.128125 -2.21625 14.81875 -2.875 14.5 C-4.9375 13.4375 -4.9375 13.4375 -5.9375 12.4375 C-6.39536963 5.45498808 -6.39536963 5.45498808 -4.8125 1.9375 C-2.9375 0.4375 -2.9375 0.4375 0 0 Z " fill="#212121" transform="translate(185.9375,406.5625)"/>
<path d="M0 0 C0.66 0 1.32 0 2 0 C2.33 3.96 2.66 7.92 3 12 C3.99 11.01 4.98 10.02 6 9 C8.5 8.625 8.5 8.625 11 9 C13.5048111 10.87860833 13.98700625 11.96101874 15 15 C15.08178114 16.70016844 15.10749501 18.40336297 15.09765625 20.10546875 C15.09443359 21.08837891 15.09121094 22.07128906 15.08789062 23.08398438 C15.07951172 24.10814453 15.07113281 25.13230469 15.0625 26.1875 C15.05798828 27.22326172 15.05347656 28.25902344 15.04882812 29.32617188 C15.0370401 31.88417266 15.02058515 34.44205733 15 37 C13.68 37 12.36 37 11 37 C10.67 29.74 10.34 22.48 10 15 C8.68 14.67 7.36 14.34 6 14 C3.51942372 16.48057628 3.70980995 17.36192464 3.5859375 20.7890625 C3.54726562 21.73007812 3.50859375 22.67109375 3.46875 23.640625 C3.4378125 24.62546875 3.406875 25.6103125 3.375 26.625 C3.33632812 27.61757813 3.29765625 28.61015625 3.2578125 29.6328125 C3.1633686 32.08835385 3.07780125 34.5438841 3 37 C2.01 37 1.02 37 0 37 C0 24.79 0 12.58 0 0 Z " fill="#191919" transform="translate(219,398)"/>
<path d="M0 0 C0.99 0 1.98 0 3 0 C3 9.24 3 18.48 3 28 C1.35 27.67 -0.3 27.34 -2 27 C-2.66 27.66 -3.32 28.32 -4 29 C-7 28.9375 -7 28.9375 -10 28 C-11.84067876 24.51173404 -12.24099251 21.60485991 -12.1953125 17.69921875 C-12.18886719 16.72275391 -12.18242187 15.74628906 -12.17578125 14.74023438 C-12.15902344 13.73283203 -12.14226562 12.72542969 -12.125 11.6875 C-12.11597656 10.66076172 -12.10695313 9.63402344 -12.09765625 8.57617188 C-12.07416201 6.05054101 -12.04131131 3.5253919 -12 1 C-11.01 1 -10.02 1 -9 1 C-8.67 7.93 -8.34 14.86 -8 22 C-6.35 22.33 -4.7 22.66 -3 23 C-0.65079126 18.31113215 -0.56954075 13.8225651 -0.375 8.6875 C-0.31699219 7.43356445 -0.31699219 7.43356445 -0.2578125 6.15429688 C-0.16404841 4.10320741 -0.08095755 2.05163485 0 0 Z " fill="#1C1C1C" transform="translate(294,407)"/>
<path d="M0 0 C0.66 0 1.32 0 2 0 C2 20.46 2 40.92 2 62 C3.65 62 5.3 62 7 62 C7 41.87 7 21.74 7 1 C7.33 1 7.66 1 8 1 C8 21.79 8 42.58 8 64 C5.36 64 2.72 64 0 64 C0 42.88 0 21.76 0 0 Z " fill="#024D5D" transform="translate(269,321)"/>
<path d="M0 0 C2.77189158 3.21897087 3 4.6935573 3 9 C2.01 9 1.02 9 0 9 C-0.66 7.68 -1.32 6.36 -2 5 C-3.65 5 -5.3 5 -7 5 C-8.05885037 8.1765511 -8.20049266 10.59988011 -8.25 13.9375 C-8.27578125 14.97777344 -8.3015625 16.01804687 -8.328125 17.08984375 C-7.95807067 20.37187323 -7.4056178 21.75150589 -5 24 C-3.68 24 -2.36 24 -1 24 C-0.34 22.02 0.32 20.04 1 18 C1.99 18 2.98 18 4 18 C3.55270524 22.8084187 2.60316022 25.68898791 -1 29 C-4 29.6875 -4 29.6875 -7 29 C-12.24657374 22.61903193 -12.45387409 16.93144976 -12 9 C-11.27873346 5.89300567 -10.49962571 3.7888827 -8.8125 1.125 C-5.78952301 -0.75133055 -3.44490923 -0.49212989 0 0 Z " fill="#1B1B1B" transform="translate(211,407)"/>
<path d="M0 0 C3.6875 0.4375 3.6875 0.4375 6.0625 2.875 C7.99873244 7.11981728 8.48221028 10.8184814 8.6875 15.4375 C8.3575 15.4375 8.0275 15.4375 7.6875 15.4375 C7.3575 13.7875 7.0275 12.1375 6.6875 10.4375 C6.3575 10.7675 6.0275 11.0975 5.6875 11.4375 C3.66785801 11.50994053 1.64582876 11.52127188 -0.375 11.5 C-2.03208984 11.48646484 -2.03208984 11.48646484 -3.72265625 11.47265625 C-4.57730469 11.46105469 -5.43195313 11.44945312 -6.3125 11.4375 C-6.6425 14.7375 -6.9725 18.0375 -7.3125 21.4375 C-7.6425 21.4375 -7.9725 21.4375 -8.3125 21.4375 C-9.00154239 7.46525151 -9.00154239 7.46525151 -6.375 3.625 C-3.37777094 0.44612069 -3.37777094 0.44612069 0 0 Z " fill="#323232" transform="translate(319.3125,406.5625)"/>
<path d="M0 0 C2.625 -0.1875 2.625 -0.1875 5 0 C7.05674531 3.40059484 7.2978388 6.1186371 7.3125 10.0625 C7.33763672 11.62677734 7.33763672 11.62677734 7.36328125 13.22265625 C7 16 7 16 5.73046875 17.87109375 C4 19 4 19 0 19 C-2.38081145 15.42878282 -2.26906871 13.73325367 -2.25 9.5 C-2.25773437 7.78296875 -2.25773437 7.78296875 -2.265625 6.03125 C-2 3 -2 3 0 0 Z " fill="#F4F4F4" transform="translate(265,412)"/>
<path d="M0 0 C4.09549764 1.24327607 5.3349142 2.42515586 7.5 6.0625 C7.5 7.0525 7.5 8.0425 7.5 9.0625 C6.84 9.0625 6.18 9.0625 5.5 9.0625 C5.5 9.7225 5.5 10.3825 5.5 11.0625 C3.54174127 11.08944851 1.58337774 11.10887218 -0.375 11.125 C-1.46554688 11.13660156 -2.55609375 11.14820313 -3.6796875 11.16015625 C-6.5 11.0625 -6.5 11.0625 -8.5 10.0625 C-8.19255622 6.68061839 -7.77337672 4.47256509 -5.875 1.625 C-3.5 0.0625 -3.5 0.0625 0 0 Z " fill="#202020" transform="translate(247.5,406.9375)"/>
<path d="M0 0 C2.625 0.375 2.625 0.375 4.27734375 2.19140625 C6.3056703 6.98296028 5.94080756 11.5453276 5.8125 16.6875 C5.79896484 17.71423828 5.78542969 18.74097656 5.77148438 19.79882812 C5.73623883 22.32475909 5.686967 24.8496066 5.625 27.375 C4.305 27.375 2.985 27.375 1.625 27.375 C1.59994385 26.72426514 1.5748877 26.07353027 1.54907227 25.40307617 C1.43306298 22.45601954 1.31035885 19.5092787 1.1875 16.5625 C1.14818359 15.53833984 1.10886719 14.51417969 1.06835938 13.45898438 C1.02646484 12.47607422 0.98457031 11.49316406 0.94140625 10.48046875 C0.90474854 9.57449951 0.86809082 8.66853027 0.83032227 7.73510742 C0.7041795 5.22451218 0.7041795 5.22451218 -0.375 2.375 C-1.365 2.045 -2.355 1.715 -3.375 1.375 C-2.375 0.375 -2.375 0.375 0 0 Z " fill="#343434" transform="translate(228.375,407.625)"/>
<path d="M0 0 C0.99 0 1.98 0 3 0 C3 12.54 3 25.08 3 38 C2.01 38 1.02 38 0 38 C0 25.46 0 12.92 0 0 Z " fill="#252525" transform="translate(303,397)"/>
<path d="M0 0 C-0.1875 1.875 -0.1875 1.875 -1 4 C-2.65 4.66 -4.3 5.32 -6 6 C-6.33 12.93 -6.66 19.86 -7 27 C-7.99 27 -8.98 27 -10 27 C-10 18.09 -10 9.18 -10 0 C-5.65055731 -0.86988854 -4.02871475 -1.03595522 0 0 Z " fill="#141414" transform="translate(343,408)"/>
<path d="M0 0 C1.1446875 1.175625 1.1446875 1.175625 2.3125 2.375 C6.01151017 6.06599869 6.01151017 6.06599869 10.91796875 7.1953125 C11.99691406 7.17210938 13.07585937 7.14890625 14.1875 7.125 C15.81751953 7.09792969 15.81751953 7.09792969 17.48046875 7.0703125 C18.31191406 7.04710938 19.14335937 7.02390625 20 7 C20 6.34 20 5.68 20 5 C21.95927063 3.2856382 23.95880212 1.61594832 26 0 C26 0.66 26 1.32 26 2 C26.99 2.33 27.98 2.66 29 3 C28.01 3 27.02 3 26 3 C25.773125 3.5775 25.54625 4.155 25.3125 4.75 C23.55189415 7.76818146 21.9904776 9.1548117 19 11 C14.57859937 12.02639657 10.34742408 12.50902323 6 11 C0.43573944 6.21214789 0.43573944 6.21214789 0 2 C0 1.34 0 0.68 0 0 Z " fill="#E9F2F1" transform="translate(248,60)"/>
<path d="M0 0 C0.33 0 0.66 0 1 0 C2.629059 5.29444174 1.27720949 8.1161183 -1.0078125 12.84375 C-4.65950839 20.77971903 -3.41070721 29.71187283 -0.8515625 37.73828125 C-0.03216559 39.91456938 0.9176554 41.94354527 2 44 C1.34 44 0.68 44 0 44 C0 47.96 0 51.92 0 56 C-0.33 56 -0.66 56 -1 56 C-1.05607422 54.60587891 -1.05607422 54.60587891 -1.11328125 53.18359375 C-1.47538432 46.37463609 -1.95691281 41.08617438 -5 35 C-7.43511532 24.59541635 -5.78691079 15.36569502 -1 6 C-0.29241674 2.7633037 -0.29241674 2.7633037 0 0 Z " fill="#CDE2E8" transform="translate(351,173)"/>
<path d="M0 0 C0.99 0 1.98 0 3 0 C3 9.24 3 18.48 3 28 C2.01 28 1.02 28 0 28 C-2.63229078 24.05156383 -1.78084396 22.6157581 -1 18 C-0.74330766 14.85773172 -0.59227408 11.71126439 -0.4375 8.5625 C-0.39431641 7.73556641 -0.35113281 6.90863281 -0.30664062 6.05664062 C-0.20161967 4.03790451 -0.10041441 2.01897049 0 0 Z " fill="#232323" transform="translate(294,407)"/>
<path d="M0 0 C0.99 0.33 1.98 0.66 3 1 C2.34 1 1.68 1 1 1 C1 5.62 1 10.24 1 15 C-1.92824652 15.97608217 -3.95613276 16.08226668 -7 16 C-8.14814997 18.29629994 -8.30769809 20.07698086 -8.5625 22.625 C-8.64628906 23.44226563 -8.73007812 24.25953125 -8.81640625 25.1015625 C-8.87699219 25.72804688 -8.93757813 26.35453125 -9 27 C-9.33 27 -9.66 27 -10 27 C-10.2165625 25.39125 -10.2165625 25.39125 -10.4375 23.75 C-10.82316546 20.22263697 -10.82316546 20.22263697 -11.8125 17.9375 C-12 16 -12 16 -10.375 12.75 C-8 10 -8 10 -5.375 9.5 C-3 10 -3 10 -1 12 C-0.67 8.04 -0.34 4.08 0 0 Z " fill="#313131" transform="translate(272,397)"/>
<path d="M0 0 C0.33 1.32 0.66 2.64 1 4 C4.96 4 8.92 4 13 4 C13 3.34 13 2.68 13 2 C13.66 2 14.32 2 15 2 C15 3.98 15 5.96 15 8 C10.38 8 5.76 8 1 8 C1 9.32 1 10.64 1 12 C0.34 12 -0.32 12 -1 12 C-1.02712066 10.56260487 -1.04645067 9.12506137 -1.0625 7.6875 C-1.07410156 6.88699219 -1.08570313 6.08648437 -1.09765625 5.26171875 C-1 3 -1 3 0 0 Z " fill="#050505" transform="translate(240,414)"/>
<path d="M0 0 C3.10551666 3.10551666 3.81323934 4.89198233 5 9 C3.68 8.67 2.36 8.34 1 8 C1 23.18 1 38.36 1 54 C0.67 54 0.34 54 0 54 C0 36.18 0 18.36 0 0 Z " fill="#CEE5EB" transform="translate(107,331)"/>
<path d="M0 0 C0.33 0.99 0.66 1.98 1 3 C4.96 3 8.92 3 13 3 C13.33 2.01 13.66 1.02 14 0 C14.33 2.31 14.66 4.62 15 7 C10.38 7 5.76 7 1 7 C0.67 7.99 0.34 8.98 0 10 C0 6.7 0 3.4 0 0 Z " fill="#050505" transform="translate(312,415)"/>
<path d="M0 0 C0.33 0 0.66 0 1 0 C1 14.85 1 29.7 1 45 C-1.92824652 42.07175348 -3.27239967 39.7020007 -5 36 C-3.68 36 -2.36 36 -1 36 C-0.67 24.12 -0.34 12.24 0 0 Z " fill="#D2E2F7" transform="translate(352,309)"/>
<path d="M0 0 C0.33 0 0.66 0 1 0 C1 17.82 1 35.64 1 54 C0.67 54 0.34 54 0 54 C-0.33 38.16 -0.66 22.32 -1 6 C-1.99 6.495 -1.99 6.495 -3 7 C-1.125 1.125 -1.125 1.125 0 0 Z " fill="#CAE1ED" transform="translate(141,331)"/>
<path d="M0 0 C0.33 0 0.66 0 1 0 C1.61553365 7.26329704 -0.03790194 12.13542951 -2.8203125 18.82421875 C-4.35864478 22.96549075 -4.77661721 26.60680517 -5 31 C-5.33 31 -5.66 31 -6 31 C-6.33 28.69 -6.66 26.38 -7 24 C-8.98 24.99 -8.98 24.99 -11 26 C-10.236875 25.071875 -9.47375 24.14375 -8.6875 23.1875 C-5.34445699 18.5718213 -4.22187411 13.49346651 -3 8 C-2.34 8 -1.68 8 -1 8 C-0.67 5.36 -0.34 2.72 0 0 Z " fill="#C8D5D2" transform="translate(177,194)"/>
<path d="M0 0 C0.33 0 0.66 0 1 0 C1.19335938 0.59167969 1.38671875 1.18335938 1.5859375 1.79296875 C3.22651014 6.78757218 3.22651014 6.78757218 5.125 11.6875 C7.16701157 17.08424487 7.67625793 23.26900061 7 29 C6.34 29.66 5.68 30.32 5 31 C4.85304687 29.40671875 4.85304687 29.40671875 4.703125 27.78125 C3.98769045 18.77202196 3.98769045 18.77202196 0.8125 10.4375 C-1.44199833 6.16172731 -1.13871704 4.55486815 0 0 Z " fill="#EEF5F4" transform="translate(170,173)"/>
<path d="M0 0 C3.125 0.25 3.125 0.25 5 1.5625 C6.125 3.25 6.125 3.25 6.125 6.25 C2.495 6.25 -1.135 6.25 -4.875 6.25 C-3.68915929 0.32079646 -3.68915929 0.32079646 0 0 Z " fill="#E1E1E1" transform="translate(318.875,411.75)"/>
<path d="M0 0 C3.125 0.3125 3.125 0.3125 5 2.1875 C6.125 4.3125 6.125 4.3125 6.125 6.3125 C2.495 6.3125 -1.135 6.3125 -4.875 6.3125 C-3.69277778 0.40138889 -3.69277778 0.40138889 0 0 Z " fill="#E4E4E4" transform="translate(246.875,411.6875)"/>
<path d="M0 0 C3.51535226 0.2757139 4.84433211 0.63646658 7.1875 3.25 C7.4375 5.9375 7.4375 5.9375 7.1875 8.25 C6.1975 8.25 5.2075 8.25 4.1875 8.25 C3.8575 7.59 3.5275 6.93 3.1875 6.25 C2.5275 6.105625 1.8675 5.96125 1.1875 5.8125 C0.5275 5.626875 -0.1325 5.44125 -0.8125 5.25 C-1.1425 4.26 -1.4725 3.27 -1.8125 2.25 C-2.4725 1.92 -3.1325 1.59 -3.8125 1.25 C-2.8125 0.25 -2.8125 0.25 0 0 Z " fill="#2B2B2B" transform="translate(185.8125,406.75)"/>
<path d="M0 0 C0.66 0 1.32 0 2 0 C2.19335938 0.67546875 2.38671875 1.3509375 2.5859375 2.046875 C2.84632813 2.93890625 3.10671875 3.8309375 3.375 4.75 C3.63023437 5.63171875 3.88546875 6.5134375 4.1484375 7.421875 C4.9209934 9.76080572 5.83625676 11.83442562 7 14 C6.34 14 5.68 14 5 14 C5 17.96 5 21.92 5 26 C4.67 26 4.34 26 4 26 C3.96261719 25.07058594 3.92523438 24.14117187 3.88671875 23.18359375 C3.5240792 16.36454808 2.99134804 11.11275469 0 5 C-0.1875 2.0625 -0.1875 2.0625 0 0 Z " fill="#B5D0D4" transform="translate(346,203)"/>
<path d="M0 0 C1.65 0 3.3 0 5 0 C7.71391278 4.77357872 9.56561146 8.34388537 9 14 C8.67 14 8.34 14 8 14 C7.9175 12.88625 7.835 11.7725 7.75 10.625 C7.42413806 6.99662057 7.42413806 6.99662057 5.1875 5.6875 C4.465625 5.460625 3.74375 5.23375 3 5 C1.66666667 4.33333333 0.33333333 3.66666667 -1 3 C-0.67 2.01 -0.34 1.02 0 0 Z " fill="#1F1F1F" transform="translate(319,408)"/>
<path d="M0 0 C0.83144531 0.09990234 1.66289062 0.19980469 2.51953125 0.30273438 C4.55560939 0.54846794 6.59044632 0.80444864 8.625 1.0625 C8.625 1.3925 8.625 1.7225 8.625 2.0625 C1.035 2.0625 -6.555 2.0625 -14.375 2.0625 C-14.705 1.4025 -15.035 0.7425 -15.375 0.0625 C-10.02625255 -1.17515516 -5.3662608 -0.68896969 0 0 Z " fill="#A3B2A3" transform="translate(300.375,276.9375)"/>
<path d="M0 0 C2.375 0.3125 2.375 0.3125 5 1 C7 4 7 4 7 8 C6.01 8 5.02 8 4 8 C3.731875 7.360625 3.46375 6.72125 3.1875 6.0625 C2.11332248 3.66868314 2.11332248 3.66868314 -1 3 C-0.67 2.01 -0.34 1.02 0 0 Z " fill="#101010" transform="translate(207,408)"/>
<path d="M0 0 C1.67542976 0.28604898 3.34385343 0.61781233 5 1 C4.360625 1.309375 3.72125 1.61875 3.0625 1.9375 C1.06389179 2.8345163 1.06389179 2.8345163 0 4 C-1.68608966 4.07205511 -3.37500659 4.08386068 -5.0625 4.0625 C-5.98160156 4.05347656 -6.90070313 4.04445313 -7.84765625 4.03515625 C-8.55792969 4.02355469 -9.26820313 4.01195312 -10 4 C-9.67 3.01 -9.34 2.02 -9 1 C-7.700625 1.020625 -6.40125 1.04125 -5.0625 1.0625 C-3.70834367 1.08399454 -2.35243917 1.07148199 -1 1 C-0.67 0.67 -0.34 0.34 0 0 Z " fill="#42919C" transform="translate(313,274)"/>
<path d="M0 0 C0.33 0 0.66 0 1 0 C1.87890625 6.15234375 1.87890625 6.15234375 2 8 C1.67 8.33 1.34 8.66 1 9 C0.84344973 10.48638992 0.74933057 11.97949127 0.68359375 13.47265625 C0.64169922 14.37177734 0.59980469 15.27089844 0.55664062 16.19726562 C0.51732422 17.14279297 0.47800781 18.08832031 0.4375 19.0625 C0.39431641 20.01189453 0.35113281 20.96128906 0.30664062 21.93945312 C0.20020724 24.29281353 0.09818992 26.64628354 0 29 C-0.33 29 -0.66 29 -1 29 C-1.02927632 25.47918442 -1.04689119 21.95840061 -1.0625 18.4375 C-1.07087891 17.44685547 -1.07925781 16.45621094 -1.08789062 15.43554688 C-1.10536914 10.17451301 -0.92308398 5.18235335 0 0 Z " fill="#DEE8DE" transform="translate(185,180)"/>
<path d="M0 0 C1.32 0 2.64 0 4 0 C4 0.66 4 1.32 4 2 C4.598125 1.79375 5.19625 1.5875 5.8125 1.375 C8 1 8 1 11 3 C13.0492094 3.45139459 13.0492094 3.45139459 15.1875 3.625 C16.445625 3.74875 17.70375 3.8725 19 4 C19 4.33 19 4.66 19 5 C11.43801103 5.44701413 6.23664375 5.53574091 0 1 C0 0.67 0 0.34 0 0 Z " fill="#33738A" transform="translate(383,382)"/>
<path d="M0 0 C0.33 0 0.66 0 1 0 C2.17076699 3.98060777 3.25749403 7.91621717 4 12 C3.01 12 2.02 12 1 12 C-0.79760213 8.18009548 -1.28743526 5.21571713 -1 1 C-0.67 0.67 -0.34 0.34 0 0 Z " fill="#0B0B0B" transform="translate(200,420)"/>
<path d="M0 0 C-1.5830577 4.2742558 -4.50568404 6.26531794 -8 9 C-7.64598897 5.81390075 -7.16972964 4.20933322 -5.125 1.6875 C-3 0 -3 0 0 0 Z " fill="#383A3D" transform="translate(359,175)"/>
<path d="M0 0 C0.33 0.66 0.66 1.32 1 2 C1.99 2.33 2.98 2.66 4 3 C3.01 3 2.02 3 1 3 C0.34 4.32 -0.32 5.64 -1 7 C-2.32 7 -3.64 7 -5 7 C-5 5 -5 5 -2.5 2.375 C-1.675 1.59125 -0.85 0.8075 0 0 Z " fill="#DFE8E9" transform="translate(273,60)"/>
<path d="M0 0 C1.670625 0.061875 1.670625 0.061875 3.375 0.125 C2.735625 0.393125 2.09625 0.66125 1.4375 0.9375 C-0.95631686 2.01167752 -0.95631686 2.01167752 -1.625 5.125 C-3.605 5.455 -5.585 5.785 -7.625 6.125 C-4.84462617 0.16705607 -4.84462617 0.16705607 0 0 Z " fill="#383838" transform="translate(207.625,406.875)"/>
<path d="M0 0 C0.33 0 0.66 0 1 0 C1 1.98 1 3.96 1 6 C1.66 6 2.32 6 3 6 C3.33 7.65 3.66 9.3 4 11 C3.01 11.495 3.01 11.495 2 12 C-0.05257931 8.55166676 -1.0632763 6.68338409 -0.6875 2.625 C-0.460625 1.75875 -0.23375 0.8925 0 0 Z " fill="#1A5F72" transform="translate(373,362)"/>
<path d="M0 0 C0.66 0.33 1.32 0.66 2 1 C0.38405168 3.04119788 -1.2856382 5.04072937 -3 7 C-3.66 7 -4.32 7 -5 7 C-5.33 7.66 -5.66 8.32 -6 9 C-7.32 8.67 -8.64 8.34 -10 8 C-7.62630732 5.37644494 -5.03386523 3.78920257 -2 2 C-1.34 1.34 -0.68 0.68 0 0 Z " fill="#BFDBDF" transform="translate(331,264)"/>
<path d="M0 0 C0.33 0 0.66 0 1 0 C1.48108275 1.41601714 1.95978141 2.83284437 2.4375 4.25 C2.83775391 5.43335938 2.83775391 5.43335938 3.24609375 6.640625 C3.91954708 8.74821988 4.49150595 10.84753973 5 13 C2 12 2 12 0.25 9.875 C-1.34903493 6.19721965 -0.83249295 3.85974006 0 0 Z " fill="#C4DFE3" transform="translate(170,173)"/>
<path d="M0 0 C1.125 1.6875 1.125 1.6875 2 4 C1.125 6.75 1.125 6.75 0 9 C-0.99 8.67 -1.98 8.34 -3 8 C-2.25 2.25 -2.25 2.25 0 0 Z " fill="#313131" transform="translate(242,409)"/>
<path d="M0 0 C0.66 0.33 1.32 0.66 2 1 C0.515 4.465 0.515 4.465 -1 8 C-1.66 8 -2.32 8 -3 8 C-3.1875 5.125 -3.1875 5.125 -3 2 C-2.01 1.34 -1.02 0.68 0 0 Z " fill="#0D0D0D" transform="translate(184,408)"/>
<path d="M0 0 C4.875 0.875 4.875 0.875 6 2 C7.34747084 2.23075082 8.70377565 2.41153063 10.0625 2.5625 C11.361875 2.706875 12.66125 2.85125 14 3 C14 3.33 14 3.66 14 4 C4.82713348 4.63019694 4.82713348 4.63019694 1.375 2 C0.92125 1.34 0.4675 0.68 0 0 Z " fill="#4F5E6A" transform="translate(252,64)"/>
<path d="M0 0 C0.99 0.33 1.98 0.66 3 1 C3 1.66 3 2.32 3 3 C4.32 3.33 5.64 3.66 7 4 C6.67 4.99 6.34 5.98 6 7 C5.4225 6.525625 4.845 6.05125 4.25 5.5625 C2.07417916 4.0515133 0.57397552 3.45963849 -2 3 C-1 1 -1 1 0 0 Z " fill="#3C8F9C" transform="translate(272,267)"/>
<path d="M0 0 C2.5 2.3125 2.5 2.3125 5 5 C5 5.99 5 6.98 5 8 C3.0625 7.25 3.0625 7.25 1 6 C0.20124132 3.86997684 0 2.26695035 0 0 Z " fill="#DFEBEF" transform="translate(248,60)"/>
<path d="M0 0 C3 1 3 1 4.75 3.9375 C5.1625 4.948125 5.575 5.95875 6 7 C5.67 7.66 5.34 8.32 5 9 C1.9083091 6.47043472 1.09068668 3.77545388 0 0 Z " fill="#23667A" transform="translate(112,319)"/>
<path d="M0 0 C2.475 0.495 2.475 0.495 5 1 C4.67 2.32 4.34 3.64 4 5 C2.68 4.67 1.36 4.34 0 4 C0 2.66666667 0 1.33333333 0 0 Z " fill="#363636" transform="translate(338,407)"/>
<path d="M0 0 C0.33 0 0.66 0 1 0 C0.25 6.75 0.25 6.75 -2 9 C-3 6 -3 6 -1.5625 2.8125 C-1.046875 1.884375 -0.53125 0.95625 0 0 Z " fill="#1B6074" transform="translate(137,314)"/>
<path d="M0 0 C1.21236328 0.04060547 1.21236328 0.04060547 2.44921875 0.08203125 C3.06410156 0.11683594 3.67898438 0.15164063 4.3125 0.1875 C4.3125 0.5175 4.3125 0.8475 4.3125 1.1875 C2.7346875 1.4040625 2.7346875 1.4040625 1.125 1.625 C-1.84210549 2.06276966 -4.75544366 2.56554866 -7.6875 3.1875 C-5.26849268 0.20484049 -3.789448 -0.16475861 0 0 Z " fill="#014959" transform="translate(395.6875,306.8125)"/>
</svg>
