<svg width="420" height="934" viewBox="0 0 420 934" fill="none" xmlns="http://www.w3.org/2000/svg">
<g opacity="0.3" clip-path="url(#clip0_647_176)">
<path fill-rule="evenodd" clip-rule="evenodd" d="M-0.583328 -0.25C105.194 -0.25 210.972 -0.25 316.75 -0.25C256.047 62.007 195.77 124.618 135.917 187.583C108.509 215.574 80.898 243.38 53.0833 271C40.402 276.157 28.7354 274.6 18.0833 266.333C12.0143 260.068 5.79212 254.041 -0.583328 248.25C-0.583328 165.417 -0.583328 82.5833 -0.583328 -0.25Z" fill="#50C5FF"/>
<path fill-rule="evenodd" clip-rule="evenodd" d="M316.75 -0.25C333.862 -0.25 350.972 -0.25 368.083 -0.25C300.494 70.6469 232.244 141.036 163.333 210.917C162.792 211.61 162.597 212.388 162.75 213.25C162.362 213.25 161.972 213.25 161.583 213.25C161.736 212.388 161.541 211.61 161 210.917C153.141 202.471 144.781 194.693 135.917 187.583C195.77 124.618 256.047 62.0069 316.75 -0.25Z" fill="#D6FFEC"/>
<path fill-rule="evenodd" clip-rule="evenodd" d="M368.083 -0.25C385.195 -0.25 402.305 -0.25 419.417 -0.25C419.417 33.5833 419.417 67.4167 419.417 101.25C373.178 148.461 327.095 195.906 281.167 243.583C271.993 253.148 262.465 262.286 252.583 271C242.232 275.258 232.12 274.87 222.25 269.833C202.57 250.734 182.736 231.873 162.75 213.25C162.597 212.388 162.792 211.61 163.333 210.917C232.244 141.036 300.494 70.6469 368.083 -0.25Z" fill="#C0EAFF"/>
<path fill-rule="evenodd" clip-rule="evenodd" d="M419.417 101.25C419.417 236.583 419.417 371.917 419.417 507.25C408.107 518.558 397.219 530.225 386.75 542.25C386.362 542.25 385.972 542.25 385.583 542.25C380.839 535.746 375.394 529.719 369.25 524.167C340.083 496.555 310.917 468.945 281.75 441.333C271.848 437.189 262.125 437.578 252.583 442.5C241.454 451.878 231.343 462.184 222.25 473.417C221.861 473.417 221.472 473.417 221.083 473.417C173.677 426.984 126.039 380.706 78.1667 334.583C71.1724 322.872 71.1724 311.206 78.1667 299.583C106.209 270.959 134.015 242.181 161.583 213.25C161.972 213.25 162.361 213.25 162.75 213.25C182.736 231.873 202.569 250.734 222.25 269.833C232.12 274.87 242.231 275.258 252.583 271C262.465 262.286 271.993 253.148 281.167 243.583C327.095 195.906 373.178 148.461 419.417 101.25Z" fill="#50C5FF"/>
<path fill-rule="evenodd" clip-rule="evenodd" d="M135.917 187.583C144.781 194.693 153.141 202.471 161 210.917C161.541 211.61 161.736 212.388 161.583 213.25C134.015 242.181 106.209 270.959 78.1667 299.583C71.1724 311.206 71.1724 322.872 78.1667 334.583C126.039 380.706 173.677 426.984 221.083 473.417C213.607 481.671 205.829 489.449 197.75 496.75C152.52 454.05 107.798 410.688 63.5833 366.667C58.5278 362.388 53.4722 358.111 48.4167 353.833C36.8734 349.127 25.9846 350.294 15.75 357.333C10.0363 362.85 4.59187 368.489 -0.583328 374.25C-0.583328 332.25 -0.583328 290.25 -0.583328 248.25C5.79212 254.041 12.0143 260.068 18.0833 266.333C28.7354 274.6 40.402 276.157 53.0833 271C80.898 243.38 108.509 215.574 135.917 187.583Z" fill="#FEFFFE"/>
<path fill-rule="evenodd" clip-rule="evenodd" d="M197.75 496.75C197.75 497.138 197.75 497.528 197.75 497.917C131.607 566.003 65.4957 634.059 -0.583328 702.083C-0.583328 592.805 -0.583328 483.528 -0.583328 374.25C4.59187 368.489 10.0363 362.85 15.75 357.333C25.9846 350.294 36.8734 349.127 48.4167 353.833C53.4722 358.111 58.5278 362.388 63.5833 366.667C107.798 410.688 152.519 454.05 197.75 496.75Z" fill="#7BDCFF"/>
<path fill-rule="evenodd" clip-rule="evenodd" d="M385.583 542.25C375.704 553.101 365.204 563.406 354.083 573.167C341.402 578.323 329.735 576.767 319.083 568.5C286.572 536.96 254.295 505.266 222.25 473.417C231.343 462.184 241.454 451.878 252.583 442.5C262.125 437.578 271.848 437.189 281.75 441.333C310.917 468.945 340.083 496.555 369.25 524.167C375.394 529.719 380.838 535.746 385.583 542.25Z" fill="#A3DCFF"/>
<path fill-rule="evenodd" clip-rule="evenodd" d="M221.083 473.417C221.472 473.417 221.861 473.417 222.25 473.417C254.295 505.265 286.572 536.96 319.083 568.5C329.735 576.767 341.402 578.323 354.083 573.167C365.204 563.406 375.704 553.101 385.583 542.25C385.972 542.25 386.361 542.25 386.75 542.25C393.337 548.447 399.948 554.669 406.583 560.917C410.885 557.002 415.162 553.113 419.417 549.25C419.417 557.028 419.417 564.805 419.417 572.583C415.764 569.516 412.264 566.211 408.917 562.667C407.75 561.888 406.583 561.888 405.417 562.667C311.888 659.305 218.361 755.945 124.833 852.583C117.949 864.157 117.949 875.823 124.833 887.583C140.17 902.902 155.531 918.068 170.917 933.083C139.417 933.083 107.917 933.083 76.4167 933.083C63.6144 920.671 50.781 908.226 37.9167 895.75C37.9167 895.361 37.9167 894.972 37.9167 894.583C122.62 806.961 207.592 719.461 292.833 632.083C303.514 619.046 304.292 605.434 295.167 591.25C263.201 559.476 230.729 528.365 197.75 497.917C197.75 497.528 197.75 497.138 197.75 496.75C205.829 489.449 213.607 481.671 221.083 473.417Z" fill="#D6FFEC"/>
<path fill-rule="evenodd" clip-rule="evenodd" d="M197.75 497.917C230.729 528.365 263.201 559.476 295.167 591.25C304.292 605.434 303.514 619.046 292.833 632.083C207.592 719.461 122.62 806.961 37.9167 894.583C25.1067 882.942 12.2733 871.276 -0.583328 859.583C-0.583328 807.083 -0.583328 754.583 -0.583328 702.083C65.4957 634.058 131.607 566.003 197.75 497.917Z" fill="#B9E8FF"/>
<path fill-rule="evenodd" clip-rule="evenodd" d="M419.417 507.25C419.417 521.25 419.417 535.25 419.417 549.25C415.162 553.113 410.885 557.003 406.583 560.917C399.949 554.669 393.337 548.447 386.75 542.25C397.219 530.225 408.107 518.559 419.417 507.25Z" fill="#FEFFFE"/>
<path fill-rule="evenodd" clip-rule="evenodd" d="M419.417 572.583C419.417 658.528 419.417 744.472 419.417 830.417C385.581 864.252 352.136 898.474 319.083 933.083C269.695 933.083 220.305 933.083 170.917 933.083C155.531 918.068 140.17 902.902 124.833 887.583C117.949 875.823 117.949 864.157 124.833 852.583C218.361 755.945 311.888 659.305 405.417 562.667C406.583 561.888 407.75 561.888 408.917 562.667C412.264 566.211 415.764 569.516 419.417 572.583Z" fill="#8BE6FF"/>
<path fill-rule="evenodd" clip-rule="evenodd" d="M419.417 830.417C419.417 864.638 419.417 898.861 419.417 933.083C385.972 933.083 352.528 933.083 319.083 933.083C352.136 898.474 385.581 864.252 419.417 830.417Z" fill="#D6FFEC"/>
<path fill-rule="evenodd" clip-rule="evenodd" d="M-0.583328 859.583C12.2733 871.276 25.1067 882.942 37.9167 894.583C37.9167 894.972 37.9167 895.362 37.9167 895.75C25.0452 907.454 12.9897 919.899 1.75001 933.083C0.972227 933.083 0.19445 933.083 -0.583328 933.083C-0.583328 908.583 -0.583328 884.083 -0.583328 859.583Z" fill="#CCFFE7"/>
<path fill-rule="evenodd" clip-rule="evenodd" d="M37.9167 895.75C50.781 908.226 63.6144 920.671 76.4167 933.083C51.5278 933.083 26.6388 933.083 1.75 933.083C12.9897 919.899 25.0452 907.454 37.9167 895.75Z" fill="#FEFFFE"/>
</g>
<defs>
<clipPath id="clip0_647_176">
<rect width="420" height="933.333" fill="white" transform="translate(0 0.333344)"/>
</clipPath>
</defs>
</svg>
